<svg xmlns="http://www.w3.org/2000/svg" viewBox="0 0 360 120">
  <rect width="360" height="120" fill="none"/>

  <!-- Spotify Icon -->
  <circle cx="60" cy="60" r="45" fill="#1DB954"/>
  <path fill="#FFFFFF" d="M79.6,84.3c-1,1.7-3.1,2.3-4.8,1.2c-13.7-8.4-31.1-10.3-51.2-5.5c-1.9,0.5-3.9-0.7-4.4-2.6
    c-0.5-1.9,0.7-3.9,2.6-4.4c22.2-5.4,41.8-3.3,57.4,6.2C79.9,80.2,80.6,82.6,79.6,84.3z M86.4,69.3c-1.1,1.8-3.4,2.4-5.2,1.3
    c-15.7-9.7-39.6-12.5-57.9-7.4c-2,0.5-4.1-0.6-4.6-2.6c-0.5-2,0.6-4.1,2.6-4.6c20.8-5.6,47.3-2.6,65.4,8.4
    C87,65.6,87.5,67.6,86.4,69.3z M87.3,54.2c-1.3,2-3.9,2.5-5.8,1.2c-17.6-11.2-49.4-14.2-70.4-8.3c-2.2,0.6-4.4-0.6-5-2.8
    c-0.6-2.2,0.6-4.4,2.8-5c23.1-6.4,57.9-3.2,78.6,9.6C88,50.1,88.6,52.2,87.3,54.2z"/>

  <!-- Arrow -->
  <text x="115" y="74" font-family="Arial, Helvetica, sans-serif"
        font-size="40" font-weight="bold" fill="#FFFFFF">→</text>

  <!-- Plex Icon -->
  <polygon points="205,30 305,60 205,90" fill="#E5A00D"/>
  <text x="318" y="72" font-family="Arial, Helvetica, sans-serif"
        font-size="32" font-weight="bold" fill="#FFFFFF">Plex</text>
</svg>
